<?xml version="1.0" standalone="no"?>
<!DOCTYPE svg PUBLIC "-//W3C//DTD SVG 20010904//EN"
 "http://www.w3.org/TR/2001/REC-SVG-20010904/DTD/svg10.dtd">
<svg version="1.0" xmlns="http://www.w3.org/2000/svg"
 width="175.000000pt" height="77.000000pt" viewBox="0 0 175.000000 77.000000"
 preserveAspectRatio="xMidYMid meet">

<g transform="translate(0.000000,77.000000) scale(0.100000,-0.100000)"
fill="#000000" stroke="none">
<path d="M1142 677 c-2 -51 0 -68 8 -57 11 17 14 117 3 123 -5 3 -9 -27 -11
-66z"/>
<path d="M1028 733 c-19 -3 -29 -12 -33 -26 -4 -23 -45 -453 -45 -481 0 -14 9
-17 58 -14 l57 3 12 118 c11 113 28 167 54 167 18 0 21 -29 11 -122 -9 -81 -8
-98 6 -128 23 -47 74 -54 116 -15 27 25 27 27 11 45 -16 18 -17 33 -11 139 6
99 4 125 -9 150 -13 26 -22 31 -51 31 -28 0 -44 -8 -71 -35 l-35 -35 6 87 c4
49 10 96 12 106 4 14 -1 17 -28 16 -18 -1 -45 -4 -60 -6z"/>
<path d="M175 694 c-11 -3 -39 -9 -61 -15 -48 -13 -40 19 -70 -297 -18 -181
-18 -182 3 -210 29 -39 73 -41 114 -4 l33 29 -17 36 c-30 62 -19 117 22 117
15 0 47 10 72 23 l44 22 -4 -49 c-4 -66 12 -115 49 -151 27 -26 39 -30 85 -30
68 0 128 39 163 106 90 176 -33 352 -185 264 l-43 -24 0 54 c0 43 -5 60 -26
84 -35 42 -106 60 -179 45z m67 -91 c39 -35 12 -144 -43 -173 l-21 -12 7 94
c4 51 9 96 12 101 7 12 25 8 45 -10z m266 -135 c17 -17 15 -130 -4 -177 -32
-79 -79 -57 -79 37 0 71 10 107 35 132 23 23 31 25 48 8z"/>
<path d="M1699 675 c0 0 -2 -12 -3 -27 -1 -19 2 -24 10 -17 8 6 14 4 18 -6 8
-22 26 -9 25 18 -1 21 -2 20 -10 -3 -8 -24 -8 -23 -6 5 2 24 -1 31 -15 31 -10
0 -18 0 -19 -1z"/>
<path d="M407 600 c7 -40 9 -45 16 -33 3 4 -1 22 -8 38 l-14 30 6 -35z"/>
<path d="M1329 595 c-34 -19 -43 -42 -23 -62 14 -14 15 -33 9 -133 -5 -87 -4
-124 5 -141 28 -53 69 -53 121 0 42 42 47 36 28 -32 -21 -77 -89 -101 -148
-51 l-31 26 0 -32 c0 -23 10 -42 34 -66 29 -29 41 -34 80 -34 54 0 89 16 128
57 43 45 57 94 73 251 8 81 17 166 20 190 l5 42 -55 0 c-29 0 -56 -4 -60 -10
-3 -5 -12 -61 -19 -125 -9 -82 -18 -121 -31 -135 -31 -34 -36 -13 -30 108 7
111 6 118 -14 140 -25 25 -54 28 -92 7z"/>
<path d="M1661 610 c-1 -3 -10 -94 -21 -202 -20 -212 -35 -265 -88 -322 -52
-55 -152 -83 -203 -56 -10 6 -19 8 -19 5 0 -11 69 -35 98 -35 15 0 51 11 79
25 55 28 93 74 117 141 16 46 50 374 43 420 -2 16 -5 27 -6 24z"/>
<path d="M736 557 c-43 -24 -76 -76 -76 -119 0 -37 44 -85 91 -99 22 -7 44
-18 50 -25 17 -21 1 -54 -26 -54 -25 0 -40 26 -29 53 9 24 -40 33 -71 13 -28
-19 -40 -54 -31 -92 9 -34 66 -58 126 -52 98 10 160 64 160 141 0 47 -27 75
-99 100 -41 14 -51 22 -51 40 0 13 5 28 12 35 22 22 37 13 40 -25 3 -34 6 -38
34 -41 34 -3 59 18 69 60 6 22 1 33 -23 58 -26 26 -38 30 -84 30 -36 0 -65 -7
-92 -23z"/>
<path d="M1460 575 c0 -5 5 -17 10 -25 5 -8 10 -10 10 -5 0 6 -5 17 -10 25 -5
8 -10 11 -10 5z"/>
<path d="M228 307 c-40 -11 -49 -34 -28 -67 8 -12 10 -9 10 12 0 22 6 29 32
36 17 4 33 13 36 20 4 14 1 14 -50 -1z"/>
<path d="M1102 258 c-4 -77 -13 -86 -92 -94 -40 -4 -66 -10 -60 -14 18 -11
133 0 148 15 9 8 12 31 9 71 -2 34 -4 44 -5 22z"/>
<path d="M220 187 c0 -16 -14 -38 -41 -62 -36 -32 -46 -36 -81 -33 -34 3 -37
2 -22 -9 24 -17 49 -16 91 4 52 24 92 100 63 118 -6 3 -10 -5 -10 -18z"/>
<path d="M597 187 c-19 -30 -110 -77 -148 -77 -15 0 -39 4 -54 10 -16 6 -24 6
-20 0 10 -16 82 -31 112 -24 72 17 150 77 134 102 -6 10 -12 7 -24 -11z"/>
<path d="M884 170 c-45 -30 -125 -45 -174 -32 -28 7 -39 7 -32 0 19 -19 90
-28 138 -18 72 16 128 50 106 64 -5 3 -21 -4 -38 -14z"/>
<path d="M1231 169 c-13 -5 -33 -7 -44 -3 -13 4 -17 2 -13 -5 11 -17 86 -14
86 4 0 8 -1 15 -2 14 -2 0 -14 -5 -27 -10z"/>
</g>
</svg>
